# xmcd
#
# Track frame offsets:
#	150
#	9680
#	19154
#	30495
#	41648
#	55936
#	73937
#	86615
#	101321
#	112376
#	122993
#	141293
#	152641
#	164351
#	179586
#	193484
#	208461
#	224086
#	236437
#	261524
#
# Disc length: 3657 seconds
#
# Revision: 0
# Processed by: cddbd v1.5.2PL0 Copyright (c) Steve Scherf et al.
# Submitted via: EasyCDDAExtractor 2010.6.0.0
#
DISCID=3e0e4714
DTITLE=Matchbox - Live - Rockin' Bristol In 1978
DYEAR=2010
DGENRE=rockabilly
TTITLE0=Hoy Hoy
TTITLE1=Circle Rock
TTITLE2=Quit Your Triflin'
TTITLE3=Gunning For The Dog
TTITLE4=Goodbye Lonesome, Hello Baby Doll
TTITLE5=Old Black Joe
TTITLE6=Tore Up
TTITLE7=Rocket Trip
TTITLE8=Black Slacks
TTITLE9=Jump Back Honey
TTITLE10=Wedding Bells
TTITLE11=Tear It Up
TTITLE12=I'm Goming Home
TTITLE13=My Baby Left Me
TTITLE14=Train Kept A Rollin'
TTITLE15=Go 'Way Hound Dog
TTITLE16=Rockin' At The Ritz
TTITLE17=Setting The Woods On Fire
TTITLE18=All By Myself
TTITLE19=Hold Me Hug Me Rock Me
EXTD=
EXTT0=
EXTT1=
EXTT2=
EXTT3=
EXTT4=
EXTT5=
EXTT6=
EXTT7=
EXTT8=
EXTT9=
EXTT10=
EXTT11=
EXTT12=
EXTT13=
EXTT14=
EXTT15=
EXTT16=
EXTT17=
EXTT18=
EXTT19=
PLAYORDER=
